<svg width="50" height="50" viewBox="0 0 50 50" fill="none" xmlns="http://www.w3.org/2000/svg">
<path fill-rule="evenodd" clip-rule="evenodd" d="M14.4665 49.1667H35.5326C43.6864 49.1667 49.1674 43.444 49.1674 34.9252L49.165 31.5057C49.165 30.9933 48.933 30.51 48.5318 30.1886C48.0021 29.7663 47.4583 29.2945 46.9004 28.8105L46.8788 28.7917L46.8623 28.7775C43.8782 26.1989 40.1688 22.9937 35.5084 24.0792C32.131 24.8633 30.3984 27.4198 28.8706 29.6741L28.8626 29.6859L28.8595 29.6905C27.8456 31.1896 26.8892 32.6037 25.5541 33.4269C24.2419 34.2437 22.6807 33.6613 20.4477 32.685L20.0683 32.5158C15.9938 30.742 12.6516 31.2519 9.84581 34.0794C9.19089 34.7392 9.19573 35.8097 9.85548 36.4647C10.5152 37.1244 11.5834 37.1147 12.2383 36.455C14.0436 34.6352 15.9237 34.3887 18.7222 35.6116L19.0944 35.7735L19.0981 35.7751C21.3453 36.7561 24.4175 38.0973 27.328 36.2955C29.2782 35.0872 30.4866 33.3037 31.6538 31.5782L31.6547 31.5769C33.0077 29.5788 34.1773 27.8516 36.2721 27.3659C39.2695 26.6727 42.0111 29.0429 44.6681 31.34L44.6724 31.3437C44.7114 31.3775 44.7504 31.4113 44.7893 31.445C45.1288 31.7393 45.4642 32.03 45.7937 32.3032V34.9252C45.7937 41.53 41.7651 45.793 35.5326 45.793H14.4665C8.23389 45.793 4.20531 41.53 4.20531 34.9252V15.0747C4.20531 8.47 8.23389 4.207 14.4665 4.207H35.535C41.7676 4.207 45.7937 8.47 45.7937 15.0747V20.8022C45.7937 21.7327 46.5501 22.4891 47.4806 22.4891C48.411 22.4891 49.1674 21.7327 49.1674 20.8022V15.0747C49.1674 6.55599 43.6888 0.833328 35.535 0.833328H14.4665C6.31264 0.833328 0.834061 6.55599 0.834061 15.0747V34.9252C0.834061 43.444 6.31264 49.1667 14.4665 49.1667ZM17.3969 23.4028C13.987 23.4028 11.2151 20.6285 11.2151 17.2186C11.2151 13.8111 13.987 11.0367 17.3969 11.0367C20.8068 11.0367 23.5788 13.8111 23.5788 17.2186C23.5788 20.6285 20.8068 23.4028 17.3969 23.4028ZM17.3969 14.4104C15.8478 14.4104 14.5863 15.6695 14.5863 17.2186C14.5863 18.7701 15.8478 20.0292 17.3969 20.0292C18.9484 20.0292 20.2075 18.7701 20.2075 17.2186C20.2075 15.6695 18.9484 14.4104 17.3969 14.4104Z" fill="black"/>
</svg>
