<?xml version="1.0" encoding="UTF-8"?>
<svg width="704px" height="270px" viewBox="0 0 704 270" version="1.1" xmlns="http://www.w3.org/2000/svg" xmlns:xlink="http://www.w3.org/1999/xlink">
    <!-- Generator: Sketch 55.2 (78181) - https://sketchapp.com -->
    <title>Combined Shape1</title>
    <desc>Created with Sketch.</desc>
    <g id="Page-1" stroke="none" stroke-width="1" fill="none" fill-rule="evenodd">
        <g id="Artboard" transform="translate(-258.000000, -732.000000)" fill="#34FFFF" fill-rule="nonzero">
            <path d="M347.12,777.72 C347.12,784.48 346.21,789.55 345.69,792.02 C344.26,798 339.58,816.33 320.21,821.92 C312.8,824.13 304.48,824 296.94,824 L258.72,824 L258.72,732.22 L289.92,732.22 C293.95,732.22 298.11,732.35 302.14,732.48 C314.36,733 325.54,734.17 334.77,743.01 C340.75,748.86 347.12,759.13 347.12,777.72 Z M317.87,778.11 C317.87,777.33 318.13,761.86 309.55,756.27 C306.82,754.58 304.61,753.67 298.76,753.67 L287.84,753.67 L287.84,802.94 L298.89,802.94 C302.01,802.94 304.48,802.68 307.34,801.25 C318.13,796.05 317.87,779.54 317.87,778.11 Z M454.31,824 L423.11,824 L419.08,811.13 L387.1,811.13 L383.07,824 L351.87,824 L386.97,732.22 L419.99,732.22 L454.31,824 Z M413.1,790.72 L403.35,758.35 L393.34,790.72 L413.1,790.72 Z M525.06,754.84 L501.79,754.84 L501.79,824 L472.8,824 L472.8,754.84 L449.4,754.84 L449.4,732.22 L525.06,732.22 L525.06,754.84 Z M620.46,824 L589.26,824 L585.23,811.13 L553.25,811.13 L549.22,824 L518.02,824 L553.12,732.22 L586.14,732.22 L620.46,824 Z M579.25,790.72 L569.5,758.35 L559.49,790.72 L579.25,790.72 Z M452,901.23 C452,914.88 443.94,922.29 439.91,925.28 C428.08,933.99 412.61,933.731643 408.71,933.731643 C395.32,933.731643 382.58,931.52 371.66,923.33 C367.5,920.21 365.03,917.48 361.91,913.45 L384.14,899.28 C386.09,902.4 387.26,903.83 388.56,904.87 C393.76,909.42 403.38,911.37 409.75,911.37 C417.94,911.37 423.66,908.9 423.66,904.35 C423.66,903.31 423.14,902.53 423.01,902.14 C422.36,900.84 421.32,899.67 418.59,898.76 C415.34,897.59 409.49,896.81 401.3,895.12 C388.69,892.65 381.93,889.53 377.51,885.63 C374.65,883.16 369.45,877.05 369.58,867.04 C369.58,864.57 369.71,858.98 372.96,853.13 C382.32,835.97 406.63,836.229551 410.14,836.229551 C414.82,836.229551 431.33,836.49 444.46,846.11 C447.32,848.19 449.01,850.01 451.48,852.48 L433.15,867.69 C431.98,866.13 431.33,865.35 430.55,864.7 C425.22,859.76 415.99,858.33 409.1,858.33 C408.45,858.33 404.94,858.33 402.21,859.5 C401.69,859.76 398.57,861.19 398.57,864.31 C398.57,866 399.61,867.56 400.91,868.47 C403.25,869.9 408.71,870.94 411.18,871.33 C414.43,871.85 423.01,873.02 432.11,876.01 C437.83,877.83 452,882.9 452,901.23 Z M550.38,907.34 C547.13,913.32 545.44,915.66 543.23,918.26 C537.77,924.5 526.07,933.86 505.66,933.86 C493.96,933.86 483.56,931 474.59,923.33 C459.25,910.46 458.08,892.13 458.08,885.63 C458.08,880.04 458.73,867.3 467.57,854.95 C480.18,837.14 497.73,835.84 505.79,835.84 C526.72,835.84 539.2,846.76 544.27,852.61 C547,855.73 548.3,857.94 550.25,861.45 L525.94,873.54 C525.55,872.63 525.03,871.72 524.64,870.81 C523.08,867.69 518.53,858.2 506.83,858.33 C501.5,858.33 498.12,860.28 496.3,861.58 C487.2,868.34 487.59,881.6 487.59,883.94 C487.59,896.55 491.62,903.31 496.04,906.82 C500.59,910.33 504.75,910.46 506.96,910.46 C516.97,910.46 521.65,903.7 523.47,900.58 C524.12,899.28 524.64,898.11 525.55,895.38 L550.38,907.34 Z M587.71,931 L558.59,931 L558.59,839.22 L587.71,839.22 L587.71,931 Z M678.65,931 L602.08,931 L602.08,839.22 L674.75,839.22 L674.75,859.37 L631.2,859.37 L631.2,873.02 L671.89,873.02 L671.89,892.91 L631.07,892.91 L631.07,911.11 L678.65,911.11 L678.65,931 Z M774.52,931 L743.19,931 L712.64,877.7 L712.9,931 L685.86,931 L685.86,839.22 L716.67,839.22 L747.74,892.65 L747.35,839.22 L774.52,839.22 L774.52,931 Z M876.98,907.34 C873.73,913.32 872.04,915.66 869.83,918.26 C864.37,924.5 852.67,933.86 832.26,933.86 C820.56,933.86 810.16,931 801.19,923.33 C785.85,910.46 784.68,892.13 784.68,885.63 C784.68,880.04 785.33,867.3 794.17,854.95 C806.78,837.14 824.33,835.84 832.39,835.84 C853.32,835.84 865.8,846.76 870.87,852.61 C873.6,855.73 874.9,857.94 876.85,861.45 L852.54,873.54 C852.15,872.63 851.63,871.72 851.24,870.81 C849.68,867.69 845.13,858.2 833.43,858.33 C828.1,858.33 824.72,860.28 822.9,861.58 C813.8,868.34 814.19,881.6 814.19,883.94 C814.19,896.55 818.22,903.31 822.64,906.82 C827.19,910.33 831.35,910.46 833.56,910.46 C843.57,910.46 848.25,903.7 850.07,900.58 C850.72,899.28 851.24,898.11 852.15,895.38 L876.98,907.34 Z M961.76,931 L885.19,931 L885.19,839.22 L957.86,839.22 L957.86,859.37 L914.31,859.37 L914.31,873.02 L955,873.02 L955,892.91 L914.18,892.91 L914.18,911.11 L961.76,911.11 L961.76,931 Z M651.93,810.38 C651.93,812.36 651.84,813.32 651.18,814.13 C650.55,814.91 649.65,815.18 647.73,815.18 L644.43,815.18 L644.43,824 L640.5,824 L640.5,802.82 L648.36,802.82 C648.48,802.82 648.99,802.82 649.41,802.91 C650.67,803.18 651.27,803.99 651.48,804.41 C651.93,805.31 651.93,806.66 651.93,807.59 L651.93,810.38 Z M648.09,810.26 L648.09,808.1 C648.09,807.5 648.18,806.87 647.79,806.39 C647.34,805.82 646.5,805.94 646.35,805.94 L644.43,805.94 L644.43,812.15 L646.32,812.15 C647.13,812.15 647.58,812.06 647.82,811.73 C648.09,811.37 648.09,810.68 648.09,810.26 Z M688.548462,824 L684.678462,824 L684.678462,802.82 L688.548462,802.82 L688.548462,824 Z M733.536924,819.47 C733.536924,820.82 733.326924,822.05 732.306924,823.04 C731.046924,824.21 729.336924,824.45 727.716924,824.45 C726.156924,824.45 724.566924,824.24 723.306924,823.22 C722.676924,822.71 722.376924,822.2 722.256924,821.9 C721.896924,821.15 721.806924,820.25 721.806924,819.47 L721.806924,807.59 C721.806924,807.14 721.716924,805.01 723.126924,803.75 C723.906924,803.06 725.376924,802.37 727.746924,802.37 C730.806924,802.37 732.426924,803.63 733.056924,804.86 C733.386924,805.55 733.536924,806.21 733.536924,807.68 L733.536924,819.47 Z M729.606924,818.9 L729.606924,807.95 C729.606924,807.83 729.696924,806.87 729.366924,806.24 C729.186924,805.85 728.736924,805.31 727.746924,805.31 C727.536924,805.31 726.966924,805.34 726.486924,805.7 C725.616924,806.3 725.736924,807.23 725.736924,808.1 L725.736924,818.81 C725.736924,819.44 725.706924,820.22 726.096924,820.76 C726.546924,821.39 727.506924,821.39 727.686924,821.39 C727.866924,821.39 728.436924,821.36 728.916924,821.03 C729.636924,820.52 729.606924,819.68 729.606924,818.9 Z M778.795386,824 L773.875386,824 L770.125386,808.13 L770.455386,824 L766.795386,824 L766.795386,802.82 L771.805386,802.82 L775.615386,818.36 L775.225386,802.82 L778.795386,802.82 L778.795386,824 Z M822.793848,824 L812.233848,824 L812.233848,802.82 L822.493848,802.82 L822.493848,806.03 L816.133848,806.03 L816.133848,811.01 L822.133848,811.01 L822.133848,814.22 L816.133848,814.22 L816.133848,820.73 L822.793848,820.73 L822.793848,824 Z M865.74231,824 L855.18231,824 L855.18231,802.82 L865.44231,802.82 L865.44231,806.03 L859.08231,806.03 L859.08231,811.01 L865.08231,811.01 L865.08231,814.22 L859.08231,814.22 L859.08231,820.73 L865.74231,820.73 L865.74231,824 Z M910.550772,824 L906.500772,824 L903.500772,814.61 L902.030772,814.61 L902.030772,824 L898.130772,824 L898.130772,802.82 L905.930772,802.82 C908.510772,802.82 909.740772,804.02 909.740772,806.6 L909.740772,810.44 C909.740772,812.54 909.110772,813.5 907.250772,814.07 L910.550772,824 Z M905.870772,809.48 L905.870772,807.59 C905.870772,806.27 905.420772,805.85 904.070772,805.85 L902.030772,805.85 L902.030772,811.49 L904.070772,811.49 C905.420772,811.49 905.870772,811.01 905.870772,809.48 Z M954.159234,818.09 C954.159234,819.71 954.159234,820.4 953.949234,821.21 C953.469234,822.92 952.059234,824.45 948.459234,824.45 C946.959234,824.45 945.369234,824.24 944.109234,823.25 C943.419234,822.71 943.149234,822.14 942.999234,821.81 C942.759234,821.21 942.579234,820.82 942.579234,819.62 L942.579234,816.53 L946.449234,816.53 L946.449234,818.99 C946.449234,819.77 946.389234,820.67 947.139234,821.15 C947.379234,821.3 947.739234,821.45 948.339234,821.45 C949.029234,821.45 949.419234,821.3 949.689234,821.06 C950.259234,820.61 950.259234,819.68 950.259234,818.24 C950.259234,817.97 950.319234,817.01 949.839234,816.29 C949.539234,815.84 949.089234,815.57 948.939234,815.45 L945.249234,812.96 C944.439234,812.42 944.019234,812.09 943.479234,811.22 C943.029234,810.47 942.729234,809.66 942.729234,807.86 C942.729234,807.56 942.699234,806.06 943.239234,804.95 C944.439234,802.37 948.069234,802.37 948.489234,802.37 C949.119234,802.37 952.509234,802.37 953.619234,805.16 C953.829234,805.7 953.949234,805.91 953.949234,806.93 L953.949234,809.03 L950.049234,809.03 L950.049234,806.87 C950.049234,806.24 949.809234,805.34 948.309234,805.34 C947.409234,805.34 946.569234,805.67 946.569234,807.44 C946.569234,807.53 946.509234,808.79 946.989234,809.48 C947.109234,809.66 947.379234,809.87 947.799234,810.17 L951.579234,812.78 C951.849234,812.96 952.689234,813.59 953.319234,814.43 C954.249234,815.66 954.159234,816.59 954.159234,818.09 Z M401.75,994.875 C401.75,995.575 401.725,996.325 401.5,996.975 C400.65,999.425 397.375,999.375153 397,999.375153 C396.25,999.375153 395.55,999.25 395.325,999.2 C394.025,998.95 392.875,998.375 392.35,997.1 C392.1,996.45 392.1,995.9 392.1,995.25 L392.1,985.65 C392.1,985.35 392.125,985.025 392.15,984.725 C392.2,983.6 392.5,982.725 393.4,982 C394.125,981.425 395.1,980.975 397.05,980.975 C398.175,980.975 399.375,981.125 400.35,981.775 C400.825,982.1 401.225,982.55 401.45,983.075 C401.725,983.65 401.75,984 401.75,985.075 L401.75,987.775 L398.55,987.775 L398.55,985.55 C398.55,984.2 398.325,983.475 396.875,983.475 C395.625,983.475 395.375,984.25 395.375,985.4 L395.375,994.85 C395.375,996 395.625,996.85 396.975,996.85 C398.425,996.85 398.55,996.025 398.55,994.675 L398.55,992.375 L401.75,992.375 L401.75,994.875 Z M418.740385,995.225 C418.740385,996.35 418.565385,997.375 417.715385,998.2 C416.665385,999.175 415.240385,999.375 413.890385,999.375 C412.590385,999.375 411.265385,999.2 410.215385,998.35 C409.690385,997.925 409.440385,997.5 409.340385,997.25 C409.040385,996.625 408.965385,995.875 408.965385,995.225 L408.965385,985.325 C408.965385,984.95 408.890385,983.175 410.065385,982.125 C410.715385,981.55 411.940385,980.975 413.915385,980.975 C416.465385,980.975 417.815385,982.025 418.340385,983.05 C418.615385,983.625 418.740385,984.175 418.740385,985.4 L418.740385,995.225 Z M415.465385,994.75 L415.465385,985.625 C415.465385,985.525 415.540385,984.725 415.265385,984.2 C415.115385,983.875 414.740385,983.425 413.915385,983.425 C413.740385,983.425 413.265385,983.45 412.865385,983.75 C412.140385,984.25 412.240385,985.025 412.240385,985.75 L412.240385,994.675 C412.240385,995.2 412.215385,995.85 412.540385,996.3 C412.915385,996.825 413.715385,996.825 413.865385,996.825 C414.015385,996.825 414.490385,996.8 414.890385,996.525 C415.490385,996.1 415.465385,995.4 415.465385,994.75 Z M436.50577,999 L432.40577,999 L429.28077,985.775 L429.55577,999 L426.50577,999 L426.50577,981.35 L430.68077,981.35 L433.85577,994.3 L433.53077,981.35 L436.50577,981.35 L436.50577,999 Z M455.296155,999.35 L453.296155,1001.325 L451.071155,999.05 C450.971155,999.075 450.871155,999.125 450.771155,999.15 C450.471155,999.225 449.721155,999.375 448.871155,999.375 C447.571155,999.375 446.146155,999.1 445.196155,998.125 C444.821155,997.725 444.646155,997.375 444.571155,997.175 C444.271155,996.5 444.271155,995.75 444.271155,995.55 L444.271155,985.25 C444.271155,984.475 444.321155,983.825 444.646155,983.125 C445.171155,982.05 446.546155,980.975 449.171155,980.975 C450.396155,980.975 451.771155,981.225 452.771155,982.05 C452.921155,982.175 453.346155,982.55 453.596155,983.075 C453.871155,983.65 453.996155,984.15 453.996155,985.4 L453.996155,995.325 C453.996155,996.525 453.821155,996.925 453.521155,997.5 L455.296155,999.35 Z M450.721155,994.825 L450.721155,985.05 C450.721155,984.55 450.621155,983.45 449.171155,983.45 C449.021155,983.45 448.671155,983.475 448.321155,983.625 C447.571155,983.975 447.546155,984.775 447.546155,985.475 L447.546155,995.225 C447.546155,995.8 447.671155,996.775 449.121155,996.775 C450.821155,996.775 450.721155,995.325 450.721155,994.825 Z M471.33654,995.025 C471.33654,996.075 471.23654,996.95 470.53654,997.85 C469.28654,999.475 466.88654,999.375 466.46154,999.375 C465.16154,999.375 463.81154,999.1 462.86154,998.1 C462.68654,997.925 462.33654,997.5 462.11154,996.9 C461.86154,996.275 461.78654,995.575 461.78654,994.95 L461.78654,981.35 L465.03654,981.35 L465.03654,994.475 C465.03654,994.95 465.03654,995.425 465.21154,995.85 C465.53654,996.575 466.36154,996.6 466.56154,996.6 C466.71154,996.6 467.13654,996.6 467.51154,996.325 C468.13654,995.9 468.06154,995.075 468.06154,994.45 L468.06154,981.35 L471.33654,981.35 L471.33654,995.025 Z M488.001925,999 L479.201925,999 L479.201925,981.35 L487.751925,981.35 L487.751925,984.025 L482.451925,984.025 L482.451925,988.175 L487.451925,988.175 L487.451925,990.85 L482.451925,990.85 L482.451925,996.275 L488.001925,996.275 L488.001925,999 Z M505.39231,999 L502.01731,999 L499.51731,991.175 L498.29231,991.175 L498.29231,999 L495.04231,999 L495.04231,981.35 L501.54231,981.35 C503.69231,981.35 504.71731,982.35 504.71731,984.5 L504.71731,987.7 C504.71731,989.45 504.19231,990.25 502.64231,990.725 L505.39231,999 Z M501.49231,986.9 L501.49231,985.325 C501.49231,984.225 501.11731,983.875 499.99231,983.875 L498.29231,983.875 L498.29231,988.575 L499.99231,988.575 C501.11731,988.575 501.49231,988.175 501.49231,986.9 Z M515.657695,999 L512.432695,999 L512.432695,981.35 L515.657695,981.35 L515.657695,999 Z M533.57308,999 L529.47308,999 L526.34808,985.775 L526.62308,999 L523.57308,999 L523.57308,981.35 L527.74808,981.35 L530.92308,994.3 L530.59808,981.35 L533.57308,981.35 L533.57308,999 Z M551.063465,999 L548.288465,999 L548.288465,997.95 C547.938465,998.325 547.813465,998.45 547.588465,998.625 C546.638465,999.35 545.538465,999.375 545.138465,999.375 C542.938465,999.375 541.938465,998.2 541.588465,997.325 C541.388465,996.825 541.338465,996.3 541.338465,995.775 L541.338465,985.725 C541.338465,984.925 541.388465,984.125 541.663465,983.375 C542.388465,981.425 544.563465,980.975 546.363465,980.975 C547.788465,980.975 549.713465,981.275 550.588465,982.6 C551.088465,983.35 551.063465,984.225 551.063465,984.475 L551.063465,987.05 L547.813465,987.05 L547.813465,985.35 C547.813465,984.75 547.863465,984.15 547.263465,983.775 C547.113465,983.675 546.788465,983.525 546.288465,983.525 C546.138465,983.525 545.638465,983.525 545.263465,983.8 C544.763465,984.15 544.638465,984.7 544.638465,985.8 L544.638465,995.125 C544.638465,995.225 544.613465,995.65 544.763465,996.05 C544.913465,996.425 545.238465,996.85 546.163465,996.85 C546.338465,996.85 547.013465,996.9 547.438465,996.4 C547.838465,995.975 547.813465,995.375 547.813465,994.825 L547.813465,992.075 L545.813465,992.075 L545.813465,989.425 L551.063465,989.425 L551.063465,999 Z M578.619235,983.9 L575.344235,983.9 L575.344235,999 L572.069235,999 L572.069235,983.9 L568.819235,983.9 L568.819235,981.35 L578.619235,981.35 L578.619235,983.9 Z M594.80962,999 L591.55962,999 L591.55962,990.925 L588.58462,990.925 L588.58462,999 L585.33462,999 L585.33462,981.35 L588.58462,981.35 L588.58462,988.275 L591.55962,988.275 L591.55962,981.35 L594.80962,981.35 L594.80962,999 Z M611.525005,999 L602.725005,999 L602.725005,981.35 L611.275005,981.35 L611.275005,984.025 L605.975005,984.025 L605.975005,988.175 L610.975005,988.175 L610.975005,990.85 L605.975005,990.85 L605.975005,996.275 L611.525005,996.275 L611.525005,999 Z M639.705775,999 L635.605775,999 L632.480775,985.775 L632.755775,999 L629.705775,999 L629.705775,981.35 L633.880775,981.35 L637.055775,994.3 L636.730775,981.35 L639.705775,981.35 L639.705775,999 Z M656.42116,999 L647.62116,999 L647.62116,981.35 L656.17116,981.35 L656.17116,984.025 L650.87116,984.025 L650.87116,988.175 L655.87116,988.175 L655.87116,990.85 L650.87116,990.85 L650.87116,996.275 L656.42116,996.275 L656.42116,999 Z M673.836545,999 L670.261545,999 L668.186545,992.875 L666.086545,999 L662.561545,999 L666.461545,989.6 L662.986545,981.35 L666.536545,981.35 L668.211545,986.325 L669.911545,981.35 L673.461545,981.35 L669.936545,989.7 L673.836545,999 Z M689.45193,983.9 L686.17693,983.9 L686.17693,999 L682.90193,999 L682.90193,983.9 L679.65193,983.9 L679.65193,981.35 L689.45193,981.35 L689.45193,983.9 Z M715.9577,984.075 L710.5827,984.075 L710.5827,988.5 L715.6327,988.5 L715.6327,991.125 L710.5827,991.125 L710.5827,999 L707.3077,999 L707.3077,981.35 L715.9577,981.35 L715.9577,984.075 Z M732.973085,999 L729.598085,999 L727.098085,991.175 L725.873085,991.175 L725.873085,999 L722.623085,999 L722.623085,981.35 L729.123085,981.35 C731.273085,981.35 732.298085,982.35 732.298085,984.5 L732.298085,987.7 C732.298085,989.45 731.773085,990.25 730.223085,990.725 L732.973085,999 Z M729.073085,986.9 L729.073085,985.325 C729.073085,984.225 728.698085,983.875 727.573085,983.875 L725.873085,983.875 L725.873085,988.575 L727.573085,988.575 C728.698085,988.575 729.073085,988.175 729.073085,986.9 Z M749.63847,995.225 C749.63847,996.35 749.46347,997.375 748.61347,998.2 C747.56347,999.175 746.13847,999.375 744.78847,999.375 C743.48847,999.375 742.16347,999.2 741.11347,998.35 C740.58847,997.925 740.33847,997.5 740.23847,997.25 C739.93847,996.625 739.86347,995.875 739.86347,995.225 L739.86347,985.325 C739.86347,984.95 739.78847,983.175 740.96347,982.125 C741.61347,981.55 742.83847,980.975 744.81347,980.975 C747.36347,980.975 748.71347,982.025 749.23847,983.05 C749.51347,983.625 749.63847,984.175 749.63847,985.4 L749.63847,995.225 Z M746.36347,994.75 L746.36347,985.625 C746.36347,985.525 746.43847,984.725 746.16347,984.2 C746.01347,983.875 745.63847,983.425 744.81347,983.425 C744.63847,983.425 744.16347,983.45 743.76347,983.75 C743.03847,984.25 743.13847,985.025 743.13847,985.75 L743.13847,994.675 C743.13847,995.2 743.11347,995.85 743.43847,996.3 C743.81347,996.825 744.61347,996.825 744.76347,996.825 C744.91347,996.825 745.38847,996.8 745.78847,996.525 C746.38847,996.1 746.36347,995.4 746.36347,994.75 Z M767.403855,999 L763.303855,999 L760.178855,985.775 L760.453855,999 L757.403855,999 L757.403855,981.35 L761.578855,981.35 L764.753855,994.3 L764.428855,981.35 L767.403855,981.35 L767.403855,999 Z M783.91924,983.9 L780.64424,983.9 L780.64424,999 L777.36924,999 L777.36924,983.9 L774.11924,983.9 L774.11924,981.35 L783.91924,981.35 L783.91924,983.9 Z M793.859625,999 L790.634625,999 L790.634625,981.35 L793.859625,981.35 L793.859625,999 Z M810.57501,999 L801.77501,999 L801.77501,981.35 L810.32501,981.35 L810.32501,984.025 L805.02501,984.025 L805.02501,988.175 L810.02501,988.175 L810.02501,990.85 L805.02501,990.85 L805.02501,996.275 L810.57501,996.275 L810.57501,999 Z M827.965395,999 L824.590395,999 L822.090395,991.175 L820.865395,991.175 L820.865395,999 L817.615395,999 L817.615395,981.35 L824.115395,981.35 C826.265395,981.35 827.290395,982.35 827.290395,984.5 L827.290395,987.7 C827.290395,989.45 826.765395,990.25 825.215395,990.725 L827.965395,999 Z M824.065395,986.9 L824.065395,985.325 C824.065395,984.225 823.690395,983.875 822.565395,983.875 L820.865395,983.875 L820.865395,988.575 L822.565395,988.575 C823.690395,988.575 824.065395,988.175 824.065395,986.9 Z M260,986 L372,986 L372,999 L260,999 L260,986 Z M847,986 L959,986 L959,999 L847,999 L847,986 Z" id="Combined-Shape"></path>
        </g>
    </g>
</svg>